# xmcd CD database file
#
# Track frame offsets:
#	150
#	4562
#	29898
#	52748
#	73423
#	93306
#	106879
#	127949
#	150132
#	192494
#	223525
#
# Disc length: 4556 seconds
#
# Revision: 0
# Processed by: cddbd v1.5.1PL0 Copyright (c) Steve Scherf et al.
# Submitted via: CDex 1.51
#
DISCID=8b11ca0b
DTITLE=Buddy Emmons - Live with the Rob Mullins Trio
DYEAR=1982
DGENRE=Jazz
TTITLE0=Intro-Dewitt Scott
TTITLE1=Gonna Build a Mountain
TTITLE2=Scrapple from the Apple
TTITLE3=Blue Jade
TTITLE4=The Preacher
TTITLE5=Raisin' the Dickens
TTITLE6=Danny Boy
TTITLE7=Those Were the Days (Archie Bunker's Place)
TTITLE8=Plus 9
TTITLE9=S.S. Cool
TTITLE10=Bonus Track - Q&A with Buddy
EXTD=YEAR: 1982
EXTT0=
EXTT1=
EXTT2=
EXTT3=
EXTT4=
EXTT5=
EXTT6=
EXTT7=
EXTT8=
EXTT9=
EXTT10=
PLAYORDER=
